<svg id="screening" class="running" xmlns="http://www.w3.org/2000/svg" width="144" height="144" viewBox="0 0 144 144">

  <style>
    /* <![CDATA[ */

    #projection-1, #projection-2 {
      -webkit-transform-style: preserve-3D;
      transform-style: preserve-3D;
    }

    #projection-1 {
      -webkit-animation: ScreeningProjection 500ms linear 1000ms 1 alternate backwards paused;
      animation: ScreeningProjection 500ms linear 1000ms 1 alternate backwards paused;
      -webkit-transform-origin: bottom left;
      transform-origin: bottom left;
    }
    #screening.running #projection-1 {
      -webkit-animation-play-state: running;
      animation-play-state: running;
    }

    #projection-2 {
      -webkit-animation: ScreeningProjection 500ms linear 1000ms 1 alternate backwards paused;
      animation: ScreeningProjection 500ms linear 1000ms 1 alternate backwards paused;
      -webkit-transform-origin: top left;
      transform-origin: top left;
    }
    #screening.running #projection-2 {
      -webkit-animation-play-state: running;
      animation-play-state: running;
    }
    
    #camera {
      -webkit-animation: ScreeningCamera 500ms linear 1000ms 1 alternate backwards paused;
      animation: ScreeningCamera 500ms linear 1000ms 1 alternate backwards paused;
      -webkit-transform-origin: 4.5rem 4.5rem;
      transform-origin: 4.5rem 4.5rem;
    }
    #screening.running #camera {
      -webkit-animation-play-state: running;
      animation-play-state: running;
    }

    @-webkit-keyframes ScreeningProjection {
      0% {
        opacity: 0;
        -webkit-transform: scale(0);
        transform: scale(0);
      }
      50% {
        opacity: 0;
      }
      100% {
        opacity: 1;
        -webkit-transform: scale(1);
        transform: scale(1);
      }
    }

    @keyframes ScreeningProjection {
      0% {
        opacity: 0;
        -webkit-transform: scale(0);
        transform: scale(0);
      }
      50% {
        opacity: 0;
      }
      100% {
        opacity: 1;
        -webkit-transform: scale(1);
        transform: scale(1);
      }
    }

    @-webkit-keyframes ScreeningCamera {
      0% {
        -webkit-transform: translateX(10%);
        transform: translateX(10%);
      }
      100% {
        -webkit-transform: translateX(0%);
        transform: translateX(0%);
      }
    }

    @keyframes ScreeningCamera {
      0% {
        -webkit-transform: translateX(10%);
        transform: translateX(10%);
      }
      100% {
        -webkit-transform: translateX(0%);
        transform: translateX(0%);
      }
    }

    /* ]]> */
  </style>

  <path id="projection-1" d="M109.18,68.61l34-25a2,2,0,0,0-2.37-3.22l-34,25a2,2,0,0,0,2.37,3.22Z"/>
  
  <path id="projection-2" d="M106.82,118.61l34,25a2,2,0,0,0,2.37-3.22l-34-25a2,2,0,0,0-2.37,3.22Z"/>
  
  <path id="camera" d="M99.83,71.53a8,8,0,0,0-11-2.65L83,72.43V71a8,8,0,0,0-8-8H64.62A23.5,23.5,0,1,0,28.18,40.64,16,16,0,1,0,5.79,63.32,8,8,0,0,0,0,71v42a8,8,0,0,0,8,8H75a8,8,0,0,0,8-8v-1.26l5.56,3.71A8,8,0,0,0,101,108.79V75.7A8,8,0,0,0,99.83,71.53ZM51.5,24A19.5,19.5,0,1,1,32,43.5,19.5,19.5,0,0,1,51.5,24ZM38.38,63H26.56a16,16,0,0,0,4.77-7.44A23.62,23.62,0,0,0,38.38,63ZM4,51A12,12,0,1,1,16,63,12,12,0,0,1,4,51Zm71,66H8a4,4,0,0,1-4-4V71a4,4,0,0,1,4-4H75a4,4,0,0,1,4,4v37h0v5A4,4,0,0,1,75,117Zm22-8.21a4,4,0,0,1-6.22,3.33L83,106.93V77.12l7.91-4.84A4,4,0,0,1,97,75.7Z"/>

</svg>
