<svg id="vfx" class="running" xmlns="http://www.w3.org/2000/svg" width="144" height="144" viewBox="0 0 144 144">

  <style>
    /* <![CDATA[ */

    #firework-1, #firework-2, #firework-3, #firework-4, #firework-5, #firework-6, #firework-7, #firework-8, #firework-9, #firework-10, #firework-11, #firework-12, #firework-13, #firework-14, #firework-15, #firework-16, #firework-17, #firework-18, #firework-19, #firework-20 {
      -webkit-transform-origin: 4.5rem 4.5rem;
      transform-origin: 4.5rem 4.5rem;
      -webkit-transform-style: preserve-3D;
      transform-style: preserve-3D;
    }

    #firework-1 {
      -webkit-animation: FireworkOpacity 250ms linear 2100ms 1 alternate backwards paused;
      animation: FireworkOpacity 250ms linear 2100ms 1 alternate backwards paused;
    }
    #vfx.running #firework-1 {
      -webkit-animation-play-state: running;
      animation-play-state: running;
    }
    
    #firework-2 {
      -webkit-animation: FireworkOpacity 250ms linear 850ms 1 alternate backwards paused;
      animation: FireworkOpacity 250ms linear 850ms 1 alternate backwards paused;
    }
    #vfx.running #firework-2 {
      -webkit-animation-play-state: running;
      animation-play-state: running;
    }
    
    #firework-3 {
      -webkit-animation: FireworkOpacity 250ms linear 1300ms 1 alternate backwards paused;
      animation: FireworkOpacity 250ms linear 1300ms 1 alternate backwards paused;
    }
    #vfx.running #firework-3 {
      -webkit-animation-play-state: running;
      animation-play-state: running;
    }
    
    #firework-4 {
      -webkit-animation: FireworkOpacity 250ms linear 3300ms 1 alternate backwards paused;
      animation: FireworkOpacity 250ms linear 3300ms 1 alternate backwards paused;
    }
    #vfx.running #firework-4 {
      -webkit-animation-play-state: running;
      animation-play-state: running;
    }
    
    #firework-5 {
      -webkit-animation: FireworkOpacity 250ms linear 2850ms 1 alternate backwards paused;
      animation: FireworkOpacity 250ms linear 2850ms 1 alternate backwards paused;
    }
    #vfx.running #firework-5 {
      -webkit-animation-play-state: running;
      animation-play-state: running;
    }
    
    #firework-6 {
      -webkit-animation: FireworkOpacity 250ms linear 1450ms 1 alternate backwards paused;
      animation: FireworkOpacity 250ms linear 1450ms 1 alternate backwards paused;
    }
    #vfx.running #firework-6 {
      -webkit-animation-play-state: running;
      animation-play-state: running;
    }
    
    #firework-7 {
      -webkit-animation: FireworkOpacity 250ms linear 1800ms 1 alternate backwards paused;
      animation: FireworkOpacity 250ms linear 1800ms 1 alternate backwards paused;
    }
    #vfx.running #firework-7 {
      -webkit-animation-play-state: running;
      animation-play-state: running;
    }
    
    #firework-8 {
      -webkit-animation: FireworkOpacity 250ms linear 2000ms 1 alternate backwards paused;
      animation: FireworkOpacity 250ms linear 2000ms 1 alternate backwards paused;
    }
    #vfx.running #firework-8 {
      -webkit-animation-play-state: running;
      animation-play-state: running;
    }
    
    #firework-9 {
      -webkit-animation: FireworkOpacity 250ms linear 1500ms 1 alternate backwards paused;
      animation: FireworkOpacity 250ms linear 1500ms 1 alternate backwards paused;
    }
    #vfx.running #firework-9 {
      -webkit-animation-play-state: running;
      animation-play-state: running;
    }
    
    #firework-10 {
      -webkit-animation: FireworkOpacity 250ms linear 2250ms 1 alternate backwards paused;
      animation: FireworkOpacity 250ms linear 2250ms 1 alternate backwards paused;
    }
    #vfx.running #firework-10 {
      -webkit-animation-play-state: running;
      animation-play-state: running;
    }
    
    #firework-11 {
      -webkit-animation: FireworkOpacity 250ms linear 750ms 1 alternate backwards paused;
      animation: FireworkOpacity 250ms linear 750ms 1 alternate backwards paused;
    }
    #vfx.running #firework-11 {
      -webkit-animation-play-state: running;
      animation-play-state: running;
    }
    
    #firework-12 {
      -webkit-animation: FireworkOpacity 250ms linear 1950ms 1 alternate backwards paused;
      animation: FireworkOpacity 250ms linear 1950ms 1 alternate backwards paused;
    }
    #vfx.running #firework-12 {
      -webkit-animation-play-state: running;
      animation-play-state: running;
    }
    
    #firework-13 {
      -webkit-animation: FireworkOpacity 250ms linear 2400ms 1 alternate backwards paused;
      animation: FireworkOpacity 250ms linear 2400ms 1 alternate backwards paused;
    }
    #vfx.running #firework-13 {
      -webkit-animation-play-state: running;
      animation-play-state: running;
    }
    
    #firework-14 {
      -webkit-animation: FireworkOpacity 250ms linear 2550ms 1 alternate backwards paused;
      animation: FireworkOpacity 250ms linear 2550ms 1 alternate backwards paused;
    }
    #vfx.running #firework-14 {
      -webkit-animation-play-state: running;
      animation-play-state: running;
    }
    
    #firework-15 {
      -webkit-animation: FireworkOpacity 250ms linear 3150ms 1 alternate backwards paused;
      animation: FireworkOpacity 250ms linear 3150ms 1 alternate backwards paused;
    }
    #vfx.running #firework-15 {
      -webkit-animation-play-state: running;
      animation-play-state: running;
    }
    
    #firework-16 {
      -webkit-animation: FireworkOpacity 250ms linear 1650ms 1 alternate backwards paused;
      animation: FireworkOpacity 250ms linear 1650ms 1 alternate backwards paused;
    }
    #vfx.running #firework-16 {
      -webkit-animation-play-state: running;
      animation-play-state: running;
    }
    
    #firework-17 {
      -webkit-animation: FireworkOpacity 250ms linear 3000ms 1 alternate backwards paused;
      animation: FireworkOpacity 250ms linear 3000ms 1 alternate backwards paused;
    }
    #vfx.running #firework-17 {
      -webkit-animation-play-state: running;
      animation-play-state: running;
    }
    
    #firework-18 {
      -webkit-animation: FireworkOpacity 250ms linear 3450ms 1 alternate backwards paused;
      animation: FireworkOpacity 250ms linear 3450ms 1 alternate backwards paused;
    }
    #vfx.running #firework-18 {
      -webkit-animation-play-state: running;
      animation-play-state: running;
    }
    
    #firework-19 {
      -webkit-animation: FireworkOpacity 250ms linear 1150ms 1 alternate backwards paused;
      animation: FireworkOpacity 250ms linear 1150ms 1 alternate backwards paused;
    }
    #vfx.running #firework-19 {
      -webkit-animation-play-state: running;
      animation-play-state: running;
    }
    
    #firework-20 {
      -webkit-animation: FireworkOpacity 250ms linear 2700ms 1 alternate backwards paused;
      animation: FireworkOpacity 250ms linear 2700ms 1 alternate backwards paused;
    }
    #vfx.running #firework-20 {
      -webkit-animation-play-state: running;
      animation-play-state: running;
    }

    @-webkit-keyframes FireworksRotate {
      from {
        -webkit-transform: rotate(0deg);
        transform: rotate(0deg);
      }
      to {
        -webkit-transform: rotate(360deg);
        transform: rotate(360deg);
      }
    }

    @keyframes FireworksRotate {
      from {
        -webkit-transform: rotate(0deg);
        transform: rotate(0deg);
      }
      to {
        -webkit-transform: rotate(360deg);
        transform: rotate(360deg);
      }
    }

    @-webkit-keyframes FireworkOpacity {
      0% {
        opacity: 0;
        -webkit-transform: scale(0);
        transform: scale(0);
      }
      50% {
        opacity: 0;
      }
      100% {
        opacity: 1;
        -webkit-transform: scale(1);
        transform: scale(1);
      }
    }

    @keyframes FireworkOpacity {
      0% {
        opacity: 0;
        -webkit-transform: scale(0);
        transform: scale(0);
      }
      50% {
        opacity: 0;
      }
      100% {
        opacity: 1;
        -webkit-transform: scale(1);
        transform: scale(1);
      }
    }

    /* ]]> */
  </style>

  <g id="fireworks">

    <g id="firework-1">
      <path d="M72,0a2,2,0,0,0-2,2V7a2,2,0,0,0,4,0V2A2,2,0,0,0,72,0Z"/>
      <path d="M72,11a2,2,0,0,0-2,2v2a2,2,0,0,0,4,0V13A2,2,0,0,0,72,11Z"/>
      <path d="M72,19a2,2,0,0,0-2,2V37a2,2,0,0,0,4,0V21A2,2,0,0,0,72,19Z"/>
    </g>

    <path id="firework-2" d="M79.46,55.5a2,2,0,1,1-3.8-1.24L86.78,20a2,2,0,1,1,3.8,1.24Z"/>

    <g id="firework-3">
      <path d="M114.32,13.75a2,2,0,0,0-2.79.44l-2.94,4a2,2,0,0,0,3.24,2.35l2.94-4A2,2,0,0,0,114.32,13.75Z"/>
      <path d="M107.85,22.65a2,2,0,0,0-2.79.44l-1.18,1.62a2,2,0,1,0,3.24,2.35l1.18-1.62A2,2,0,0,0,107.85,22.65Z"/>
      <path d="M103.15,29.12a2,2,0,0,0-2.79.44L91,42.51a2,2,0,0,0,3.24,2.35l9.4-12.94A2,2,0,0,0,103.15,29.12Z"/>
    </g>

    <path id="firework-4" d="M87.74,63a2,2,0,0,1-2.79-.44h0a2,2,0,0,1,.44-2.79l29.12-21.16a2,2,0,1,1,2.35,3.24Z"/>

    <g id="firework-5">
      <path d="M140.48,49.75A2,2,0,0,0,138,48.47L133.2,50a2,2,0,1,0,1.24,3.8l4.76-1.55A2,2,0,0,0,140.48,49.75Z"/>
      <path d="M127.49,51.87l-1.9.62a2,2,0,0,0,1.24,3.8l1.9-.62a2,2,0,1,0-1.24-3.8Z"/>
      <path d="M119.89,54.34l-15.22,4.94a2,2,0,0,0,1.24,3.8l15.22-4.94a2,2,0,0,0-1.24-3.8Z"/>
    </g>

    <g id="firework-6">
      <path d="M126,70H90a2,2,0,0,0,0,4h36a2,2,0,0,0,0-4Z"/>
      <path d="M138,66a6,6,0,1,0,6,6A6,6,0,0,0,138,66Zm0,8a2,2,0,1,1,2-2A2,2,0,0,1,138,74Z"/>
    </g>

    <g id="firework-7">
      <path d="M139.19,91.73l-4.76-1.55A2,2,0,0,0,133.2,94L138,95.53a2,2,0,0,0,1.24-3.8Z"/>
      <path d="M128.73,88.33l-1.9-.62a2,2,0,0,0-1.24,3.8l1.9.62a2,2,0,1,0,1.24-3.8Z"/>
      <path d="M121.12,85.86l-15.22-4.94a2,2,0,0,0-1.24,3.8l15.22,4.94a2,2,0,0,0,1.24-3.8Z"/>
    </g>

    <path id="firework-8" d="M85.39,84.2A2,2,0,0,1,87.74,81l29.12,21.16a2,2,0,1,1-2.35,3.24Z"/>

    <g id="firework-9">
      <path d="M114.76,127.46l-2.94-4a2,2,0,0,0-3.24,2.35l2.94,4a2,2,0,0,0,3.24-2.35Z"/>
      <path d="M108.3,118.56l-1.18-1.62a2,2,0,1,0-3.24,2.35l1.18,1.62a2,2,0,0,0,3.24-2.35Z"/>
      <path d="M103.6,112.08l-9.4-12.94A2,2,0,0,0,91,101.49l9.4,12.94a2,2,0,0,0,3.24-2.35Z"/>
    </g>

    <g id="firework-10">
      <path d="M89.3,125.26a2,2,0,0,0,1.28-2.52L79.46,88.5a2,2,0,1,0-3.8,1.24L86.78,124A2,2,0,0,0,89.3,125.26Z"/>
      <path d="M98.1,132.92a6,6,0,1,0-3.85,7.56A6,6,0,0,0,98.1,132.92ZM93,136.67a2,2,0,1,1,1.28-2.52A2,2,0,0,1,93,136.67Z"/>
    </g>

    <g id="firework-11">
      <path d="M72,135a2,2,0,0,0-2,2v5a2,2,0,0,0,4,0v-5A2,2,0,0,0,72,135Z"/>
      <path d="M72,127a2,2,0,0,0-2,2v2a2,2,0,0,0,4,0v-2A2,2,0,0,0,72,127Z"/>
      <path d="M72,105a2,2,0,0,0-2,2v16a2,2,0,0,0,4,0V107A2,2,0,0,0,72,105Z"/>
    </g>

    <path id="firework-12" d="M64.54,88.5a2,2,0,1,1,3.8,1.24L57.22,124a2,2,0,0,1-3.8-1.24Z"/>

    <g id="firework-13">
      <path d="M35,123a2,2,0,0,0-2.79.44l-2.94,4a2,2,0,0,0,3.24,2.35l2.94-4A2,2,0,0,0,35,123Z"/>
      <path d="M39.67,116.5a2,2,0,0,0-2.79.44l-1.18,1.62a2,2,0,0,0,3.24,2.35l1.18-1.62A2,2,0,0,0,39.67,116.5Z"/>
      <path d="M52.6,98.7a2,2,0,0,0-2.79.44l-9.4,12.94a2,2,0,0,0,3.24,2.35L53,101.49A2,2,0,0,0,52.6,98.7Z"/>
    </g>

    <path id="firework-14" d="M56.26,81a2,2,0,0,1,2.35,3.24L29.49,105.36a2,2,0,1,1-2.35-3.24Z"/>

    <g id="firework-15">
      <path d="M9.56,90.18,4.81,91.73A2,2,0,0,0,6,95.53L10.8,94a2,2,0,0,0-1.24-3.8Z"/>
      <path d="M17.17,87.71l-1.9.62a2,2,0,1,0,1.24,3.8l1.9-.62a2,2,0,1,0-1.24-3.8Z"/>
      <path d="M40.62,82.2a2,2,0,0,0-2.52-1.28L22.88,85.86a2,2,0,0,0,1.24,3.8l15.22-4.94A2,2,0,0,0,40.62,82.2Z"/>
    </g>
    
    <g id="firework-16">
      <path d="M54,70H18a2,2,0,0,0,0,4H54a2,2,0,0,0,0-4Z"/>
      <path d="M6,66a6,6,0,1,0,6,6A6,6,0,0,0,6,66Zm0,8a2,2,0,1,1,2-2A2,2,0,0,1,6,74Z"/>
    </g>
    
    <g id="firework-17">
      <path d="M10.8,50,6,48.47a2,2,0,0,0-1.24,3.8l4.76,1.55A2,2,0,1,0,10.8,50Z"/>
      <path d="M18.41,52.48l-1.9-.62a2,2,0,1,0-1.24,3.8l1.9.62a2,2,0,0,0,1.24-3.8Z"/>
      <path d="M39.33,59.28,24.11,54.34a2,2,0,1,0-1.24,3.8l15.22,4.94a2,2,0,0,0,1.24-3.8Z"/>
    </g>
    
    <path id="firework-18" d="M58.61,59.8A2,2,0,0,1,56.26,63L27.14,41.88a2,2,0,1,1,2.35-3.24Z"/>
    
    <g id="firework-19">
      <path d="M35.41,18.24l-2.94-4a2,2,0,0,0-3.24,2.35l2.94,4a2,2,0,0,0,3.24-2.35Z"/>
      <path d="M40.11,24.71l-1.18-1.62a2,2,0,0,0-3.24,2.35l1.18,1.62a2,2,0,1,0,3.24-2.35Z"/>
      <path d="M53,42.51l-9.4-12.94a2,2,0,1,0-3.24,2.35l9.4,12.94A2,2,0,0,0,53,42.51Z"/>
    </g>

    <g id="firework-20">
      <path d="M68.34,54.26,57.22,20a2,2,0,0,0-3.8,1.24L64.54,55.5a2,2,0,1,0,3.8-1.24Z"/>
      <path d="M57.31,7.38a6,6,0,1,0-3.85,7.56A6,6,0,0,0,57.31,7.38Zm-5.09,3.76a2,2,0,1,1,1.28-2.52A2,2,0,0,1,52.22,11.13Z"/>
    </g>

  </g>

</svg>
