<svg id="instagram" xmlns="http://www.w3.org/2000/svg" width="36" height="36" viewBox="0 0 36 36">
  <path d="M26,11.8463131 L26,24.152652 C26,25.1730918 25.1730918,26 24.1547219,26 L11.8452781,26 C10.8269082,26 10,25.1730918 10,24.152652 L10,11.8463131 C10,10.8269082 10.8269082,10 11.8452781,10 L24.1547219,10 C25.1730918,10 26,10.8269082 26,11.8463131 Z M14.9231565,18 C14.9231565,19.6983182 16.3006468,21.0768435 18,21.0768435 C19.6993532,21.0768435 21.0768435,19.6983182 21.0768435,18 C21.0768435,16.3006468 19.6993532,14.9231565 18,14.9231565 C16.3006468,14.9231565 14.9231565,16.3006468 14.9231565,18 Z M22.9231565,18 C22.9231565,20.7187581 20.7187581,22.9231565 18,22.9231565 C15.2812419,22.9231565 13.0768435,20.7187581 13.0768435,18 C13.0768435,17.5736093 13.1379043,17.1627426 13.2382924,16.7684347 L11.8452781,16.7684347 L11.8452781,23.5379043 C11.8452781,23.8773609 12.1216041,24.152652 12.4620957,24.152652 L23.5379043,24.152652 C23.8783959,24.152652 24.1547219,23.8773609 24.1547219,23.5379043 L24.1547219,16.7684347 L22.7617076,16.7684347 C22.8631307,17.1627426 22.9231565,17.5736093 22.9231565,18 Z M23.5379043,11.8463131 L21.6926261,11.8463131 C21.3521345,11.8463131 21.0768435,12.1216041 21.0768435,12.4610608 L21.0768435,14.3073739 C21.0768435,14.6468305 21.3521345,14.9231565 21.6926261,14.9231565 L23.5379043,14.9231565 C23.8783959,14.9231565 24.1547219,14.6468305 24.1547219,14.3073739 L24.1547219,12.4610608 C24.1547219,12.1216041 23.8783959,11.8463131 23.5379043,11.8463131 Z"/>
</svg>
