<svg id="linkedin" xmlns="http://www.w3.org/2000/svg" width="36" height="36" viewBox="0 0 36 36">
  <path d="M26,17.971287 L26,23 L22.9983282,23 L22.9983282,18.3076082 C22.9983282,17.1281154 22.5643633,16.3237866 21.4779883,16.3237866 C20.6490666,16.3237866 20.1556144,16.8666375 19.9391195,17.3905407 C19.8581778,17.5771753 19.8396489,17.8396006 19.8396489,18.1020259 L19.8396489,23 L16.8389524,23 C16.8389524,23 16.8789356,15.0514502 16.8389524,14.2291211 L19.8396489,14.2291211 L19.8396489,15.4720886 C20.2385065,14.8742895 20.9494288,14.0235388 22.5438841,14.0235388 C24.5186682,14.0235388 26,15.2759802 26,17.971287 Z M15.3751741,11.515814 C15.3751741,12.3580382 14.7247144,13.031628 13.6773475,13.031628 L13.6578434,13.031628 C12.6504597,13.031628 12,12.3580382 12,11.515814 C12,10.6555896 12.670939,10 13.6978267,10 C14.7247144,10 15.3566453,10.6555896 15.3751741,11.515814 Z M12.1774868,23 L12.1774868,14.2291211 L15.1772081,14.2291211 L15.1772081,23 L12.1774868,23 Z"/>
</svg>
