<svg xmlns="http://www.w3.org/2000/svg" width="190" height="48" viewBox="0 0 190 48">
  <path d="M187.13,25.63a2.32,2.32,0,0,0,.76-.12,1.68,1.68,0,0,0,.6-.36,1.7,1.7,0,0,0,.4-.56,1.73,1.73,0,0,0,.14-.71,1.52,1.52,0,0,0-.5-1.25,2.12,2.12,0,0,0-1.38-.41h-.89v-.35L188,19.2l.55-.53-.78.12h-2.39V17.9h4.3v.35l-1.92,2.88-.42.35v0l.41-.08a2.58,2.58,0,0,1,.89.17,2,2,0,0,1,.71.47,2.18,2.18,0,0,1,.47.73,2.62,2.62,0,0,1,.17,1,2.78,2.78,0,0,1-.23,1.16,2.47,2.47,0,0,1-.62.85,2.7,2.7,0,0,1-.92.52,3.45,3.45,0,0,1-1.12.18,5.15,5.15,0,0,1-1-.08,4.08,4.08,0,0,1-.76-.22l.25-.86a3.28,3.28,0,0,0,.66.22A3.67,3.67,0,0,0,187.13,25.63Zm-3.49-5.82a3.94,3.94,0,0,1-.24,1.31,8.47,8.47,0,0,1-.61,1.34,13.37,13.37,0,0,1-.85,1.32q-.47.64-.94,1.22l-.59.52v0l.77-.13h2.63v.89H179V26l.64-.69q.37-.41.78-.91t.8-1.06a12.7,12.7,0,0,0,.71-1.14,7.12,7.12,0,0,0,.51-1.14,3.34,3.34,0,0,0,.19-1.07,1.45,1.45,0,0,0-.34-1,1.28,1.28,0,0,0-1-.39,2.24,2.24,0,0,0-.89.19,3.47,3.47,0,0,0-.75.43l-.4-.69a3.13,3.13,0,0,1,1-.57,3.7,3.7,0,0,1,1.24-.2,2.58,2.58,0,0,1,.92.15,1.89,1.89,0,0,1,.68.43,1.84,1.84,0,0,1,.42.66A2.29,2.29,0,0,1,183.64,19.82Zm-16.57,4.49h2.38v-3l2.44-.7v3.72H176v2.14h-4.15V34.9a4.6,4.6,0,0,0,.4,2.24,1.44,1.44,0,0,0,1.34.66,4.65,4.65,0,0,0,1.34-.17q.55-.17,1.22-.44l.55,1.86a9.38,9.38,0,0,1-1.8.64,8.68,8.68,0,0,1-2.11.24,3,3,0,0,1-2.63-1.05,6.17,6.17,0,0,1-.76-3.53V26.44h-2.38Zm-1.84,2.35a5.52,5.52,0,0,0-1.74-.31,2.91,2.91,0,0,0-2.08.72,3.12,3.12,0,0,0-.95,1.82V39.57H158V24.31h1.71l.46,1.86h.12a4.7,4.7,0,0,1,1.39-1.6,3.52,3.52,0,0,1,2.06-.56,7.51,7.51,0,0,1,2,.31Zm-13.77,7h-7.84l-2.13,5.92H139l8.09-21.7h1.16l8.13,21.7h-2.69Zm-7-2.2h6.26l-2.37-6.5-.76-3.24h0l-.76,3.3Zm-16.24,2.87q0,1.56,0,2.82a14.35,14.35,0,0,0,.27,2.49h-1.65l-.61-2.17h-.12a4.92,4.92,0,0,1-1.77,1.77,5.16,5.16,0,0,1-2.72.7A5.36,5.36,0,0,1,117.1,38q-1.48-1.92-1.48-6a8.54,8.54,0,0,1,1.85-5.94,6.53,6.53,0,0,1,5.09-2,10.27,10.27,0,0,1,1.79.12,9.23,9.23,0,0,1,1.42.4V18.2h2.44ZM122,37.8a3.6,3.6,0,0,0,2.47-.81,4.31,4.31,0,0,0,1.25-2.46V27a3.42,3.42,0,0,0-1.25-.61,7.64,7.64,0,0,0-1.86-.18,4.11,4.11,0,0,0-3.3,1.39A6.76,6.76,0,0,0,118.16,32a12.68,12.68,0,0,0,.2,2.32,5.47,5.47,0,0,0,.66,1.83,3.42,3.42,0,0,0,1.21,1.21A3.51,3.51,0,0,0,122,37.8Zm-11.85,1.77v-8.7a7.41,7.41,0,0,0-.69-3.59A2.65,2.65,0,0,0,107,26.08a4.06,4.06,0,0,0-2.67.87,4.63,4.63,0,0,0-1.48,2.18V39.57h-2.44V24.31h1.71l.46,1.86h.12a5.53,5.53,0,0,1,2-1.6,6.46,6.46,0,0,1,2.95-.63,7.54,7.54,0,0,1,2.2.29,3.3,3.3,0,0,1,1.57,1,4.88,4.88,0,0,1,.95,2,12.74,12.74,0,0,1,.32,3.13v9.22ZM87,24.31V33a14,14,0,0,0,.14,2.09,4.38,4.38,0,0,0,.47,1.5,2.23,2.23,0,0,0,.92.9A3.13,3.13,0,0,0,90,37.8a3.88,3.88,0,0,0,1.47-.26,3.81,3.81,0,0,0,1.15-.72,5.24,5.24,0,0,0,.89-1.05,6.4,6.4,0,0,0,.63-1.27V24.31h2.44V35.23q0,1.1.08,2.27a15.13,15.13,0,0,0,.26,2.06H95.19l-.61-2.41h-.15a6.07,6.07,0,0,1-1.89,2,5.35,5.35,0,0,1-3,.79,7.26,7.26,0,0,1-2.15-.29,3.29,3.29,0,0,1-1.56-1,4.87,4.87,0,0,1-.95-2,12.74,12.74,0,0,1-.32-3.13V24.31ZM68.24,31.94A9,9,0,0,1,70,26a6.11,6.11,0,0,1,5-2.06,7.27,7.27,0,0,1,3,.56A5.41,5.41,0,0,1,80,26.12a7,7,0,0,1,1.22,2.53,12.68,12.68,0,0,1,.4,3.28,9,9,0,0,1-1.73,5.94,6.11,6.11,0,0,1-5,2.06,7.27,7.27,0,0,1-3-.56,5.4,5.4,0,0,1-2.09-1.62,7,7,0,0,1-1.22-2.53A12.65,12.65,0,0,1,68.24,31.94Zm2.54,0A10.58,10.58,0,0,0,71,34.17,5.86,5.86,0,0,0,71.72,36,3.85,3.85,0,0,0,73,37.31a3.6,3.6,0,0,0,1.92.49q4.15,0,4.15-5.86a10.76,10.76,0,0,0-.23-2.26,5.87,5.87,0,0,0-.72-1.86,3.56,3.56,0,0,0-3.21-1.74Q70.78,26,70.78,31.94Zm-7.54,2.21a2.93,2.93,0,0,0-.76-2.09,7.65,7.65,0,0,0-1.91-1.43,24.84,24.84,0,0,0-2.49-1.18,13.49,13.49,0,0,1-2.49-1.33,7,7,0,0,1-1.91-1.92,5.15,5.15,0,0,1-.76-2.92,4.92,4.92,0,0,1,1.74-4,7.48,7.48,0,0,1,4.95-1.47,19.22,19.22,0,0,1,3.39.27,9.09,9.09,0,0,1,2.38.7l-.76,2.26a10,10,0,0,0-2.06-.66,13.65,13.65,0,0,0-3.07-.32,4.42,4.42,0,0,0-3,.9,2.84,2.84,0,0,0-.24,4.11,7.81,7.81,0,0,0,1.91,1.42q1.15.63,2.49,1.24a15.26,15.26,0,0,1,2.49,1.42A7.52,7.52,0,0,1,65,31.13a4.91,4.91,0,0,1,.76,2.81,6,6,0,0,1-.49,2.47,5.21,5.21,0,0,1-1.44,1.89,6.66,6.66,0,0,1-2.29,1.22A10.08,10.08,0,0,1,58.5,40a17,17,0,0,1-3.79-.35,10.32,10.32,0,0,1-2.32-.78l.86-2.26a9.83,9.83,0,0,0,2.08.76,11.82,11.82,0,0,0,3.09.37,8.63,8.63,0,0,0,1.89-.2,4.32,4.32,0,0,0,1.53-.64,3.35,3.35,0,0,0,1-1.11A3.16,3.16,0,0,0,63.24,34.15Z" style="fill:#375f9d"/>
  <polygon points="27.86 11.52 27.86 48 55.72 0 27.86 11.52" style="fill:#375f9d"/>
  <polygon points="27.86 11.52 27.86 48 0 0 27.86 11.52" style="fill:#E1E1E1"/>
</svg>
