<svg id="video-editing-1" class="running" xmlns="http://www.w3.org/2000/svg" width="144" height="144" viewBox="0 0 144 144">

  <style>
    /* <![CDATA[ */

    #film {
      -webkit-transform-origin: 4.5rem 4.5rem;
      transform-origin: 4.5rem 4.5rem;
      -webkit-transform-style: preserve-3D;
      transform-style: preserve-3D;
    }

    #film {
      -webkit-animation: FilmRotate 3000ms cubic-bezier(0.51, -0.62, 0.2, 1.13) 1000ms 1 forwards paused;
      animation: FilmRotate 3000ms cubic-bezier(0.51, -0.62, 0.2, 1.13) 1000ms 1 forwards paused;
    }
    #video-editing-1.running #film {
      -webkit-animation-play-state: running;
      animation-play-state: running;
    }

    @-webkit-keyframes FilmRotate {
      from {
        -webkit-transform: rotate(0deg);
        transform: rotate(0deg);
      }
      to {
        -webkit-transform: rotate(360deg);
        transform: rotate(360deg);
      }
    }

    @keyframes FilmRotate {
      from {
        -webkit-transform: rotate(0deg);
        transform: rotate(0deg);
      }
      to {
        -webkit-transform: rotate(360deg);
        transform: rotate(360deg);
      }
    }

    /* ]]> */
  </style>

  <g id="film">
    <path d="M45,29.83A15.17,15.17,0,1,0,60.17,45,15.17,15.17,0,0,0,45,29.83Zm0,26A10.83,10.83,0,1,1,55.83,45,10.83,10.83,0,0,1,45,55.83Z"/>
    <path d="M45,83.83A15.17,15.17,0,1,0,60.17,99,15.17,15.17,0,0,0,45,83.83Zm0,26A10.83,10.83,0,1,1,55.83,99,10.83,10.83,0,0,1,45,109.83Z"/>
    <path d="M99,83.83A15.17,15.17,0,1,0,114.17,99,15.17,15.17,0,0,0,99,83.83Zm0,26A10.83,10.83,0,1,1,109.83,99,10.83,10.83,0,0,1,99,109.83Z"/>
    <path d="M99,29.83A15.17,15.17,0,1,0,114.17,45,15.17,15.17,0,0,0,99,29.83Zm0,26A10.83,10.83,0,1,1,109.83,45,10.83,10.83,0,0,1,99,55.83Z"/>
    <path d="M72,63a9,9,0,1,0,9,9A9,9,0,0,0,72,63Zm0,14a5,5,0,1,1,5-5A5,5,0,0,1,72,77Z"/>
  </g>

  <path id="base" d="M72,0A72,72,0,0,0,48.28,140H2a2,2,0,0,0,0,4H72A72,72,0,0,0,72,0Zm0,140a68,68,0,1,1,68-68A68,68,0,0,1,72,140Z"/>

</svg>
