<svg id="video-editing-2" xmlns="http://www.w3.org/2000/svg" width="144" height="144" viewBox="0 0 144 144">

  <style>
    /* <![CDATA[ */

    .hero-content.aos-animate #video-editing-2 #chack,
    .services-item-content-image.aos-animate #video-editing-2 #chack {
      -webkit-animation: ChackRotate 750ms cubic-bezier(0.5, 0, 1, 1) 1000ms 1 forwards;
      animation: ChackRotate 750ms cubic-bezier(0.5, 0, 1, 1) 1000ms 1 forwards;
      -webkit-transform-origin: bottom left;
      transform-origin: bottom left;
      -webkit-transform-style: preserve-3D;
      transform-style: preserve-3D;
    }

    @-webkit-keyframes ChackRotate {
      0% {
        -webkit-transform: rotate(0deg);
        transform: rotate(0deg);
      }
      33% {
        -webkit-transform: rotate(-18deg);
        transform: rotate(-18deg);
      }
      66% {
        -webkit-transform: rotate(0deg);
        transform: rotate(0deg);
      }
      100% {
        -webkit-transform: rotate(-18deg);
        transform: rotate(-18deg);
      }
    }

    @keyframes ChackRotate {
      0% {
        -webkit-transform: rotate(0deg);
        transform: rotate(0deg);
      }
      33% {
        -webkit-transform: rotate(-18deg);
        transform: rotate(-18deg);
      }
      66% {
        -webkit-transform: rotate(0deg);
        transform: rotate(0deg);
      }
      100% {
        -webkit-transform: rotate(-18deg);
        transform: rotate(-18deg);
      }
    }

    /* ]]> */
  </style>

  <path id="chack" d="M141,65 L8.99626871,65 C7.33941446,65 5.99626871,63.6568542 5.99626871,62 L5.99626871,45 C5.99626871,43.3431458 7.33941446,42 8.99626871,42 L141,42 C142.656854,42 144,43.3431458 144,45 L144,62 C144,63.6568542 142.656854,65 141,65 Z M140,46 L9.99626871,46 L9.99626871,61 L140,61 L140,46 Z"/>

  <path id="base" d="M55.1715729,65 L31.8284271,65 L46.8284271,80 L70.1715729,80 L55.1715729,65 Z M60.8284271,65 L75.8284271,80 L89.1715729,80 L74.1715729,65 L60.8284271,65 Z M26.1715729,65 L12.8284271,65 L27.8284271,80 L41.1715729,80 L26.1715729,65 Z M79.8284271,65 L94.8284271,80 L118.171573,80 L103.171573,65 L79.8284271,65 Z M108.828427,65 L123.828427,80 L137.171573,80 L122.171573,65 L108.828427,65 Z M127.828427,65 L140,77.1715729 L140,65 L127.828427,65 Z M10,67.8284271 L10,80 L22.1715729,80 L10,67.8284271 Z M140,84 L10,84 L10,116 C10,129.254834 20.745166,140 34,140 L116,140 C129.254834,140 140,129.254834 140,116 L140,84 Z M144,61 L144,116 C144,131.463973 131.463973,144 116,144 L34,144 C18.536027,144 6,131.463973 6,116 L6,61 L144,61 Z M41,94 L109,94 C110.656854,94 112,95.3431458 112,97 L112,127 C112,128.656854 110.656854,130 109,130 L41,130 C39.3431458,130 38,128.656854 38,127 L38,97 C38,95.3431458 39.3431458,94 41,94 Z M42,126 L108,126 L108,98 L42,98 L42,126 Z"/>

</svg>
